<svg xmlns="http://www.w3.org/2000/svg" viewBox="0 0 51.13 60"><path d="M49.29 14.43l1.34-3a.79.79 0 0 0-.16-.87l-3.56-3.6A5.66 5.66 0 0 0 41 5.56l-.95.34L34.7.07 25.58 0h-.03l-9.12.07-5.34 5.84-.95-.34a5.66 5.66 0 0 0-5.92 1.38l-3.56 3.6a.79.79 0 0 0-.16.88l1.34 3L0 19.45l1.2 4.52 5.42 20.64a10.51 10.51 0 0 0 4.07 5.89s6.58 4.65 13.09 8.87a3.3 3.3 0 0 0 1.78.63 3.3 3.3 0 0 0 1.79-.63c6.5-4.22 13.1-8.87 13.1-8.87a10.51 10.51 0 0 0 4.06-5.89l5.43-20.64 1.19-4.52z"/><path d="M12.65 9.7a.08.08 0 0 0 .04 0s.46.07 1 .18l3.45.66 1.5.29a3.92 3.92 0 0 0 1.48-.22l2.72-.88c.53-.17 1.41-.41 1.95-.54a3.98 3.98 0 0 1 .77-.04 3.98 3.98 0 0 1 .78.04c.54.13 1.41.37 1.94.54l2.72.88a3.92 3.92 0 0 0 1.48.22l1.5-.29 3.45-.66 1-.18a.08.08 0 0 0 .05 0c4.8-4.38 8.43-2.75 8.43-2.75A5.66 5.66 0 0 0 41 5.57l-.95.34L34.7.07 25.58 0h-.03l-9.12.07-5.34 5.84-.95-.34a5.66 5.66 0 0 0-5.92 1.38s3.63-1.63 8.43 2.75z"/><path d="M33.28 40.8l-2.98-1.54c-.5-.26-1.32-.65-1.83-.86l-1.62-.67a7.74 7.74 0 0 0-1.07-.4h-.43a7.74 7.74 0 0 0-1.07.4l-1.62.67c-.51.21-1.34.6-1.83.86l-2.98 1.55a.57.57 0 0 0-.07 1.05l2.58 1.82c.46.33 1.18.89 1.6 1.25l.72.63 1.53 1.33.69.6a.96.96 0 0 0 1.33 0l.7-.6c.4-.37 1.1-.97 1.51-1.33l.73-.63a25.2 25.2 0 0 1 1.6-1.25l2.58-1.82a.57.57 0 0 0-.07-1.05z" fill="#fff"/><path d="M45.48 18.72a13.23 13.23 0 0 0-.8-1.32l-1.67-2.47c-.3-.46-.85-1.2-1.2-1.63l-2.24-2.82a7.88 7.88 0 0 0-.67-.78.08.08 0 0 1-.05 0s-.45.07-1 .18l-3.44.66-1.51.29a3.92 3.92 0 0 1-1.48-.22l-2.72-.88c-.53-.17-1.4-.41-1.95-.54a3.98 3.98 0 0 0-.77-.04 3.98 3.98 0 0 0-.77.04c-.54.13-1.42.37-1.95.54l-2.72.88a3.92 3.92 0 0 1-1.47.22l-1.51-.29-3.45-.66-1-.18a.08.08 0 0 1-.04 0 7.88 7.88 0 0 0-.67.78l-2.25 2.82c-.35.44-.89 1.17-1.2 1.63L7.28 17.4a13.23 13.23 0 0 0-.79 1.32 6.02 6.02 0 0 0-.23 1.57l.09.27a4 4 0 0 0 .15.5c.35.44.95 1.12 1.33 1.53l5.89 6.25a1.69 1.69 0 0 1 .3 1.67l-.97 2.28a2.97 2.97 0 0 0-.04 1.88l.2.54a5.1 5.1 0 0 0 1.56 2.2l.93.75a1.75 1.75 0 0 0 1.7.2l3.29-1.56a8.36 8.36 0 0 0 1.66-1.12l2.63-2.37a1.05 1.05 0 0 0 .06-1.52l-5.94-4a1.15 1.15 0 0 1-.37-1.46l2.3-4.33a2.25 2.25 0 0 0 .12-1.72 2.63 2.63 0 0 0-1.31-1.19l-7.22-2.73c-.52-.2-.5-.4.06-.45l4.24-.4a6.55 6.55 0 0 1 1.98.17l3.7 1.03a1.13 1.13 0 0 1 .78 1.27l-1.45 7.92a4.1 4.1 0 0 0-.07 1.34c.06.19.56.44 1.1.55l2.25.48a3.78 3.78 0 0 0 1.55 0L29 27.8c.54-.11 1.03-.36 1.1-.55a4.1 4.1 0 0 0-.08-1.34l-1.45-7.92a1.13 1.13 0 0 1 .8-1.27l3.69-1.03a6.55 6.55 0 0 1 1.98-.17l4.24.4c.55.05.58.26.06.45l-7.22 2.73a2.63 2.63 0 0 0-1.31 1.19 2.25 2.25 0 0 0 .11 1.72l2.3 4.33a1.15 1.15 0 0 1-.36 1.46l-5.94 4a1.05 1.05 0 0 0 .05 1.52l2.64 2.37a8.36 8.36 0 0 0 1.66 1.12l3.29 1.56a1.75 1.75 0 0 0 1.7-.2l.92-.75a5.1 5.1 0 0 0 1.57-2.2l.2-.54a2.97 2.97 0 0 0-.05-1.88l-.96-2.28a1.69 1.69 0 0 1 .3-1.67l5.89-6.25c.38-.4.98-1.1 1.32-1.53a4 4 0 0 0 .16-.5l.08-.27a6.02 6.02 0 0 0-.22-1.57z" fill="#fff"/></svg>
